<svg id="图层_1" data-name="图层 1" xmlns="http://www.w3.org/2000/svg" viewBox="0 0 187.09 172.13"><defs><style>.cls-1{fill:#fff;}</style></defs><title>logo</title><path class="cls-1" d="M67.31,7.48V179.62c-21.56-10.22-42.25-20.19-63.19-29.79C.13,148,0,145.09,0,141.72V44.25c0-3.61.75-6.11,4.49-7.85C25.06,27.18,45.5,17.58,67.31,7.48Z" transform="translate(-0.01 -7.48)"/><path class="cls-1" d="M130,152.69a25.85,25.85,0,0,1,1.87-2.24c7.48-4.11,18.2-4.36,21.31-13.59,4.36-12.71,2.37-26.17,1.12-39.39-.37-4-3.37-5.36-7-5.73l-38.89-4.86c-3.74-.5-5.86.87-5.86,4.74,0,.62-.12,1.37-.12,2-1.37,15.46-.62,16.33,14.83,15.58,1.37-.12,2.62-.12,4-.25,13.84-1.5,17.2,2.12,14.46,15.83-.62,3.12-2.24,4.61-5.11,5.11C118,132,105.58,134,93.11,136.36c-5.86,1.12-6.86-1.87-6.73-6.61.12-21.19.12-42.5,0-63.69,0-6.48,1.5-9.1,8.72-7.1,11,3.12,22.06,5.61,33.15,8.1,5.23,1.12,8.35,2.87,7.23,9.35-1.74,10,6.61,10,13,10.84,7.23,1,6.61-5.48,7.23-9.6,2.49-15.08-1.37-21.94-15.21-28.79-2.87-1.5-5.86-2.87-8.85-6.61,17-3.86,34-7.85,51-11.72,4.86-1.12,4.49,2.87,4.49,5.73v121.4c0,3.86-1,6.36-5.86,5.36C164.41,159.55,147.83,156.31,130,152.69Z" transform="translate(-0.01 -7.48)"/></svg>