<?xml version="1.0" encoding="utf-8"?>
<!-- Generator: Adobe Illustrator 21.0.0, SVG Export Plug-In . SVG Version: 6.00 Build 0)  -->
<svg version="1.1" id="图层_1" xmlns="http://www.w3.org/2000/svg" xmlns:xlink="http://www.w3.org/1999/xlink" x="0px" y="0px"
	 viewBox="0 0 863 222" style="enable-background:new 0 0 863 222;" xml:space="preserve">
<style type="text/css">
	.st0{fill:#FFFFFF;}
	.st1{enable-background:new    ;}
</style>
<g>
	<path class="st0" d="M86,12.2v202c-25.3-12-49.5-23.7-74.2-35C7.2,177,7,173.6,7,169.6V55.4c0-4.2,0.9-7.1,5.2-9.3
		C36.3,35.3,60.4,24.1,86,12.2z"/>
	<path class="st0" d="M159.5,182.6c0.6-0.9,1.4-1.9,2.2-2.6c8.8-4.8,21.3-5.1,25-15.9c5.1-15,2.8-30.7,1.4-46.3
		c-0.5-4.6-4-6.3-8.2-6.8l-45.6-5.7c-4.3-0.6-6.9,1.1-6.9,5.6c0,0.8-0.2,1.5-0.2,2.3c-1.5,18.2-0.8,19.1,17.4,18.3
		c1.5-0.2,3.1-0.2,4.6-0.3c16.2-1.7,20.2,2.5,17,18.5c-0.8,3.7-2.6,5.4-6,6c-14.8,2.5-29.3,4.8-43.9,7.6c-6.9,1.4-8-2.2-7.9-7.7
		c0.2-24.8,0.2-49.8,0-74.8c0-7.6,1.7-10.6,10.2-8.3c13,3.7,25.9,6.6,38.9,9.6c6.2,1.4,9.9,3.4,8.5,10.9c-2,11.7,7.7,11.7,15.3,12.6
		c8.5,1.2,7.7-6.5,8.5-11.3c2.9-17.7-1.5-25.8-17.9-33.8c-3.4-1.7-6.9-3.4-10.3-7.7c19.9-4.5,39.9-9.3,59.8-13.7
		c5.7-1.4,5.2,3.4,5.2,6.8v142.5c0,4.5-1.2,7.4-6.9,6.3C199.9,190.6,180.3,186.7,159.5,182.6z"/>
</g>
<g class="st1">
	<path class="st0" d="M314.5,67.3v92.3H276V30.1h50.2c22,0,39.3,5,51.7,15c14.8,12,22.2,28.2,22.2,48.7c0,19.6-6.3,35.6-19,48
		c-12.7,12.4-28.9,18.6-48.9,18.6c-2.3,0-6.2-0.1-11.5-0.4V122h6.2c22.5,0,33.7-9.4,33.7-28.2c0-17.7-11-26.5-33.1-26.5H314.5z"/>
	<path class="st0" d="M508.6,118.1h-53.8c-0.8-2.7-1.2-5.2-1.2-7.5c0-3.2,0.6-6.3,1.7-9.3h18c-1.3-7-5.2-10.5-11.9-10.5
		c-4.4,0-8,1.9-10.8,5.6c-2.8,3.8-4.2,8.6-4.2,14.5c0,6.1,1.3,11.1,4,14.9c2.7,3.8,6.2,5.7,10.6,5.7c3.5,0,7-1.8,10.2-5.3l20.2,24.3
		c-9.4,7.4-19.9,11.1-31.4,11.1c-14,0-25.8-4.7-35.4-14.1c-9.6-9.4-14.3-21.1-14.3-35c0-13.9,4.8-25.6,14.5-35.1
		c9.6-9.6,21.5-14.3,35.5-14.3c13.7,0,25.3,4.7,34.6,14c9.3,9.3,14,20.8,14,34.5C509,112.8,508.8,115,508.6,118.1z"/>
	<path class="st0" d="M582.6,66.4v37.4c-5,0-8.4,0.9-10.3,2.8c-1.9,1.9-3.1,5.6-3.6,11.1c-1.6,18.3-8.7,31.2-21.3,38.7
		c-6.6,3.9-16.1,5.9-28.3,5.9h-4.9v-37.6h1.6c5.7,0,9.8-1.2,12.2-3.6c2.4-2.4,3.8-6.5,4.2-12.5c0.5-9.7,1.4-16.5,2.7-20.4
		c1.3-3.9,3.9-7.8,7.9-11.7c7-6.8,16.6-10.2,28.9-10.2H582.6z"/>
	<path class="st0" d="M629.7,65v94.6h-35.5V65H629.7z M612,22.8c4.8,0,9,1.7,12.5,5.1c3.5,3.4,5.3,7.4,5.3,12c0,4.9-1.7,9-5,12.1
		c-3.3,3.2-7.6,4.7-12.8,4.7s-9.4-1.6-12.8-4.7c-3.3-3.2-5-7.2-5-12.1c0-4.6,1.8-8.6,5.3-12C603.1,24.5,607.2,22.8,612,22.8z"/>
	<path class="st0" d="M701,120.6v32.6c-5.1,1.9-10,2.8-14.7,2.8c-11.5,0-21.1-4.3-29.1-13c-7.9-8.7-11.9-19.3-11.9-31.8
		c0-13.5,4.8-25,14.3-34.3c9.6-9.3,21.3-14,35.2-14c7.4,0,14.5,1.5,21.3,4.5c6.8,3,12.1,7,15.9,12c6.5,8.3,9.7,20.3,9.7,36.1v31.1
		c0,16.9-4.8,30.6-14.4,41.1c-9.6,10.5-22.1,15.8-37.4,15.8c-4.7,0-10.6-1.2-17.7-3.5v-32.3c4.6,2.5,9.3,3.8,14,3.8
		c6.4,0,11.3-2.1,14.8-6.3c3.5-4.2,5.2-10.2,5.2-18.1v-35.6c0-9.9-4-14.9-12.1-14.9c-3.4,0-6.4,1.3-9,3.9c-2.6,2.6-3.8,5.6-3.8,9.1
		c0,3.6,1.2,6.6,3.7,9c2.4,2.4,5.5,3.6,9.1,3.6C696.5,122.3,698.8,121.8,701,120.6z"/>
	<path class="st0" d="M847,159.6h-35.5v-53.4c0-5.4-2.2-8.2-6.7-8.2c-4.4,0-6.6,2.7-6.6,8.2v53.4h-35.5v-52.8
		c0-12.3,4.1-22.7,12.2-31.2S793,63,804.9,63c13.5,0,24.4,4.9,32.6,14.7c6.4,7.7,9.6,18.3,9.6,32V159.6z"/>
</g>
</svg>
