<?xml version="1.0" encoding="utf-8"?>
<!-- Generator: Adobe Illustrator 21.0.0, SVG Export Plug-In . SVG Version: 6.00 Build 0)  -->
<svg version="1.1" id="图层_1" xmlns="http://www.w3.org/2000/svg" xmlns:xlink="http://www.w3.org/1999/xlink" x="0px" y="0px"
	 viewBox="0 0 187.1 172.1" style="enable-background:new 0 0 187.1 172.1;" xml:space="preserve">
<style type="text/css">
	.st0{fill:#2D72FE;}
</style>
<title>logo-color</title>
<path class="st0" d="M67.3,0v172.1C45.7,161.9,25,151.9,4.1,142.3c-4-1.8-4.1-4.7-4.1-8.1V36.8c0-3.6,0.8-6.1,4.5-7.8
	C25,19.7,45.5,10.1,67.3,0z"/>
<path class="st0" d="M130,145.2c0.6-0.8,1.2-1.5,1.9-2.2c7.5-4.1,18.2-4.4,21.3-13.6c4.4-12.7,2.4-26.2,1.1-39.4
	c-0.4-4-3.4-5.4-7-5.7l-38.9-4.9c-3.7-0.5-5.9,0.9-5.9,4.7c0,0.6-0.1,1.4-0.1,2c-1.4,15.5-0.6,16.3,14.8,15.6c1.4-0.1,2.6-0.1,4-0.3
	c13.8-1.5,17.2,2.1,14.5,15.8c-0.6,3.1-2.2,4.6-5.1,5.1c-12.6,2.1-25,4.1-37.5,6.5c-5.9,1.1-6.9-1.9-6.7-6.6
	c0.1-21.2,0.1-42.5,0-63.7c0-6.5,1.5-9.1,8.7-7.1c11,3.1,22.1,5.6,33.2,8.1c5.2,1.1,8.4,2.9,7.2,9.3c-1.7,10,6.6,10,13,10.8
	c7.2,1,6.6-5.5,7.2-9.6c2.5-15.1-1.4-21.9-15.2-28.8c-2.9-1.5-5.9-2.9-8.9-6.6c17-3.9,34-7.8,51-11.7c4.9-1.1,4.5,2.9,4.5,5.7v121.4
	c0,3.9-1,6.4-5.9,5.4C164.4,152.1,147.8,148.8,130,145.2z"/>
</svg>
